<svg width="15" height="16" viewBox="0 0 15 16" fill="none" xmlns="http://www.w3.org/2000/svg">
<path d="M4.94999 9H3.84999C3.6474 9 3.48332 9.22375 3.48332 9.5V15.5C3.48332 15.7762 3.6474 16 3.84999 16H4.94999C5.15257 16 5.31665 15.7762 5.31665 15.5V9.5C5.31665 9.22375 5.15257 9 4.94999 9ZM2.01665 12H0.916654C0.714071 12 0.549988 12.2238 0.549988 12.5V15.5C0.549988 15.7762 0.714071 16 0.916654 16H2.01665C2.21924 16 2.38332 15.7762 2.38332 15.5V12.5C2.38332 12.2238 2.21924 12 2.01665 12ZM7.88332 6H6.78332C6.58074 6 6.41665 6.22375 6.41665 6.5V15.5C6.41665 15.7762 6.58074 16 6.78332 16H7.88332C8.0859 16 8.24999 15.7762 8.24999 15.5V6.5C8.24999 6.22375 8.0859 6 7.88332 6ZM10.8167 3H9.71665C9.51407 3 9.34999 3.22375 9.34999 3.5V15.5C9.34999 15.7762 9.51407 16 9.71665 16H10.8167C11.0192 16 11.1833 15.7762 11.1833 15.5V3.5C11.1833 3.22375 11.0192 3 10.8167 3ZM13.75 0H12.65C12.4474 0 12.2833 0.22375 12.2833 0.5V15.5C12.2833 15.7762 12.4474 16 12.65 16H13.75C13.9526 16 14.1167 15.7762 14.1167 15.5V0.5C14.1167 0.22375 13.9526 0 13.75 0Z" fill="black"/>
</svg>
