<svg width="15" height="14" viewBox="0 0 15 14" fill="none" xmlns="http://www.w3.org/2000/svg">
<path d="M14.55 3.84C10.4899 -1.28094 4.1752 -1.27906 0.116657 3.84C-0.0359681 4.0325 -0.0389473 4.35844 0.108636 4.55813L0.893302 5.61969C1.03401 5.81032 1.26043 5.81438 1.40664 5.63157C4.75063 1.45406 9.91559 1.45313 13.2603 5.63157C13.4065 5.81438 13.6329 5.81 13.7736 5.61969L14.5583 4.55813C14.7056 4.35844 14.7027 4.0325 14.55 3.84ZM7.33334 10C6.52324 10 5.86668 10.8953 5.86668 12C5.86668 13.1047 6.52324 14 7.33334 14C8.14345 14 8.80001 13.1047 8.80001 12C8.80001 10.8953 8.14345 10 7.33334 10ZM11.9779 7.38782C9.33649 4.2025 5.32722 4.20594 2.68882 7.38782C2.5307 7.57844 2.52566 7.90938 2.67576 8.11126L3.46501 9.17344C3.60251 9.35844 3.82388 9.37094 3.97032 9.19844C5.89418 6.93063 8.77686 6.93563 10.6961 9.19844C10.8426 9.37094 11.0639 9.35876 11.2014 9.17344L11.9907 8.11126C12.141 7.90938 12.1358 7.57813 11.9779 7.38782Z" fill="black"/>
</svg>
